<svg width="108" height="218" viewBox="0 0 108 218" fill="none" xmlns="http://www.w3.org/2000/svg">
<mask id="mask0_11_10" style="mask-type:alpha" maskUnits="userSpaceOnUse" x="0" y="0" width="108" height="218">
<path d="M107.5 92.0107V218H0.5V92.0107V51.0512C1.3015 33.9415 13.7247 0 52.1966 0C90.6685 0 107.5 25.1274 107.5 51.0512V92.0107Z" fill="white"/>
</mask>
<g mask="url(#mask0_11_10)">
<path d="M107.5 92.0107V218H0.5V92.0107V51.0512C1.3015 33.9415 13.7247 0 52.1966 0C90.6685 0 107.5 25.1274 107.5 51.0512V92.0107Z" fill="#70A346"/>
<path d="M46.6552 149L-17 194.5V235H125V194.5L61.3448 149H46.6552Z" fill="#E6E6E6"/>
<path d="M45.8276 149L-25 194.5V235H133V194.5L62.1724 149H45.8276Z" fill="#85B55D"/>
<path d="M89 148V95L62 101.169V134.259L89 148Z" fill="#85B55D"/>
<path d="M138 172V85L93 95.127V149.444L138 172Z" fill="#85B55D"/>
<path d="M-30 173V84L15 94.3598V149.926L-30 173Z" fill="#85B55D"/>
<path d="M19 148V95L46 101.169V134.259L19 148Z" fill="#85B55D"/>
<path d="M55.1325 20.4994C27.6843 20.4994 6.8251 55.4998 -0.173497 73L-7.34279 56.2824L-14 31.5528L3.92324 0.653046L43.8665 -10L107.878 7.07219L120 52.1017L107.878 73C101.733 55.4998 82.5807 20.4994 55.1325 20.4994Z" fill="#85B55D"/>
</g>
</svg>
