<svg width="107" height="218" viewBox="0 0 107 218" fill="none" xmlns="http://www.w3.org/2000/svg">
<mask id="mask0_25_2" style="mask-type:alpha" maskUnits="userSpaceOnUse" x="0" y="0" width="107" height="218">
<path d="M107 92.0107V218H0V92.0107V51.0512C0.801498 33.9415 13.2247 0 51.6966 0C90.1685 0 107 25.1274 107 51.0512V92.0107Z" fill="white"/>
</mask>
<g mask="url(#mask0_25_2)">
<path d="M107 92.0107V218H0V92.0107V51.0512C0.801498 33.9415 13.2247 0 51.6966 0C90.1685 0 107 25.1274 107 51.0512V92.0107Z" fill="#FFB566"/>
<path d="M46.1552 149L-17.5 194.5V235H124.5V194.5L60.8448 149H46.1552Z" fill="#E6E6E6"/>
<path d="M45.3276 149L-25.5 194.5V235H132.5V194.5L61.6724 149H45.3276Z" fill="#FB9E3A"/>
<path d="M88.5 148V95L61.5 101.169V134.259L88.5 148Z" fill="#FB9E3A"/>
<path d="M137.5 172V85L92.5 95.127V149.444L137.5 172Z" fill="#FB9E3A"/>
<path d="M-30.5 173V84L14.5 94.3598V149.926L-30.5 173Z" fill="#FB9E3A"/>
<path d="M18.5 148V95L45.5 101.169V134.259L18.5 148Z" fill="#FB9E3A"/>
<path d="M54.6325 20.4994C27.1843 20.4994 6.3251 55.4998 -0.673497 73L-7.84279 56.2824L-14.5 31.5528L3.42324 0.653046L43.3665 -10L107.378 7.07219L119.5 52.1017L107.378 73C101.233 55.4998 82.0807 20.4994 54.6325 20.4994Z" fill="#FB9E3A"/>
</g>
</svg>
