<svg width="368" height="184" viewBox="0 0 368 184" fill="none" xmlns="http://www.w3.org/2000/svg">
<path d="M92 184C67.6001 184 44.1995 174.307 26.9462 157.054C9.69283 139.8 -6.7876e-07 116.4 0 92C6.7876e-07 67.6001 9.69283 44.1995 26.9462 26.9462C44.1995 9.69283 67.6001 -2.90966e-07 92 0L92 92L92 184Z" fill="#FDFABB"/>
<path d="M184 184C159.6 184 136.2 174.307 118.946 157.054C101.693 139.8 92 116.4 92 92C92 67.6001 101.693 44.1995 118.946 26.9462C136.2 9.69283 159.6 -2.90966e-07 184 0L184 92L184 184Z" fill="#FDFABB"/>
<path d="M276 184C251.6 184 228.2 174.307 210.946 157.054C193.693 139.8 184 116.4 184 92C184 67.6001 193.693 44.1995 210.946 26.9462C228.2 9.69283 251.6 -2.90966e-07 276 0L276 92L276 184Z" fill="#FDFABB"/>
</svg>
